<svg width="16" height="16" viewBox="0 0 16 16" fill="none" xmlns="http://www.w3.org/2000/svg">
<path d="M12.6371 3.5625C11.7679 3.14295 10.8448 2.83717 9.88126 2.6665C9.75997 2.88695 9.6252 3.18561 9.53086 3.42028C8.50602 3.26383 7.48857 3.26383 6.47785 3.42028C6.38351 3.18561 6.24201 2.88695 6.12746 2.6665C5.15719 2.83717 4.23408 3.14295 3.37093 3.5625C1.62578 6.27894 1.15411 8.93137 1.38994 11.5482C2.54889 12.4371 3.66742 12.9776 4.7664 13.3332C5.03592 12.9492 5.27849 12.5367 5.48737 12.1029C5.08983 11.9465 4.71249 11.7545 4.34864 11.5269C4.44297 11.4558 4.53731 11.3776 4.6249 11.2994C6.82151 12.3589 9.20073 12.3589 11.3704 11.2994C11.4647 11.3776 11.5523 11.4558 11.6466 11.5269C11.2828 11.7545 10.9055 11.9465 10.5079 12.1029C10.7168 12.5367 10.9594 12.9492 11.2289 13.3332C12.3272 12.9776 13.4524 12.4371 14.6053 11.5482C14.895 8.51895 14.1464 5.88785 12.6371 3.5625ZM5.79058 9.93404C5.13024 9.93404 4.5912 9.30116 4.5912 8.52606C4.5912 7.75096 5.11677 7.11804 5.79058 7.11804C6.45764 7.11804 7.0034 7.75096 6.98993 8.52606C6.98993 9.30116 6.45764 9.93404 5.79058 9.93404ZM10.2182 9.93404C9.55782 9.93404 9.01809 9.30116 9.01809 8.52606C9.01809 7.75096 9.54434 7.11804 10.2182 7.11804C10.8852 7.11804 11.431 7.75096 11.4175 8.52606C11.4175 9.30116 10.892 9.93404 10.2182 9.93404Z" fill="#A1A8B3"/>
</svg>
