<svg width="64" height="64" viewBox="0 0 64 64" fill="none" xmlns="http://www.w3.org/2000/svg">
<rect width="64" height="64" fill="#F0F3F8"/>
<path d="M16.9278 40.27V40.6029C16.9278 40.6029 29.9085 35.7988 32.432 37.0395L30.9098 37.4594C31.0431 37.4594 33.51 37.6107 33.51 37.6107C33.5678 38.088 33.7379 38.5473 34.0081 38.9555C34.2783 39.3636 34.6419 39.7106 35.0725 39.9712C36.5584 40.8904 36.5866 41.3897 36.5866 41.3897C36.5866 41.3897 35.8154 41.6848 35.8154 42.0592C36.5325 41.8669 37.2741 41.7664 38.02 41.7604C38.6927 41.7829 39.36 41.8833 40.0064 42.0592C40.0064 42.0592 39.9297 41.681 38.8921 41.3897C37.8544 41.0984 36.8531 40.0695 36.3484 39.4983C36.0457 39.1332 35.8494 38.7007 35.7786 38.2432C35.7079 37.7857 35.7651 37.3188 35.9447 36.8882C36.304 36.0257 37.5597 35.5453 40.1074 34.3046C43.1315 32.8407 43.8219 31.7437 44.2459 30.9001C44.6698 30.0565 45.3077 28.3656 45.659 27.5713C45.9511 26.8288 46.4536 26.1749 47.1125 25.6799C47.5607 25.3583 49.6037 24.6358 49.6037 24.6358C49.6037 24.6358 48.0452 23.3913 47.5365 23.0168C46.9006 22.4526 46.0965 22.0832 45.231 21.9576C44.149 21.8252 43.0507 22.4986 42.3078 22.9487C41.5649 23.3989 40.1276 24.7153 39.5461 25.0936C38.9647 25.4718 37.4749 25.8501 35.1048 27.2081C32.7348 28.5661 23.3273 34.1911 23.3273 34.1911L25.7498 34.2138L14.8767 39.4983H15.9628L14.3962 40.6331C15.2639 40.8192 16.1746 40.6894 16.9439 40.27H16.9278Z" fill="#D2D9E2"/>
</svg>
