<svg width="20" height="20" viewBox="0 0 20 20" fill="none" xmlns="http://www.w3.org/2000/svg">
<path d="M16.769 16.1814C15.8031 17.2392 14.6027 18.0559 13.2642 18.566C11.9256 19.076 10.4862 19.2653 9.06126 19.1186C7.63635 18.9719 6.26565 18.4933 5.0591 17.7212C3.85255 16.9491 2.84374 15.905 2.11359 14.6726C1.38343 13.4403 0.95226 12.0539 0.85465 10.6248C0.757041 9.19568 0.995712 7.76358 1.55152 6.44337C2.10733 5.12315 2.96481 3.95156 4.05517 3.02258C5.14553 2.0936 6.43843 1.43308 7.83017 1.09401L8.12126 2.28882C6.91624 2.58241 5.79679 3.15431 4.8527 3.95866C3.90862 4.76302 3.16618 5.77743 2.68493 6.92053C2.20369 8.06363 1.99704 9.30361 2.08155 10.541C2.16607 11.7784 2.5394 12.9788 3.1716 14.0458C3.8038 15.1129 4.67727 16.0169 5.72195 16.6854C6.76663 17.3539 7.95345 17.7683 9.1872 17.8953C10.421 18.0224 11.6673 17.8585 12.8263 17.4168C13.9853 16.9752 15.0246 16.268 15.8609 15.3522L16.769 16.1814Z" fill="#FF4DA0"/>
<path d="M16.769 16.1814C15.2882 17.803 13.2745 18.8392 11.0942 19.1013C8.91385 19.3634 6.71189 18.8341 4.88893 17.6097C3.06596 16.3852 1.74313 14.547 1.16113 12.4296C0.579133 10.3121 0.776638 8.05603 1.71771 6.07189L2.82883 6.59889C2.01401 8.31685 1.843 10.2702 2.34692 12.1036C2.85084 13.9371 3.9962 15.5286 5.57461 16.5888C7.15301 17.649 9.05957 18.1073 10.9474 17.8803C12.8352 17.6534 14.5788 16.7562 15.8609 15.3522L16.769 16.1814Z" fill="#E5007A"/>
<path d="M10.0002 17.3337C8.76746 17.3337 7.55463 17.0229 6.47379 16.4301C5.39296 15.8374 4.47899 14.9817 3.81637 13.9422C3.15375 12.9027 2.76386 11.713 2.68274 10.4829C2.60161 9.25287 2.83188 8.02223 3.35224 6.90472C3.8726 5.78722 4.66628 4.81892 5.6599 4.08933C6.65353 3.35974 7.81504 2.8924 9.03708 2.73051C10.2591 2.56862 11.5023 2.71739 12.6516 3.16309C13.8009 3.60878 14.8193 4.33701 15.6127 5.28047L14.5931 6.13793C13.9438 5.36587 13.1104 4.76994 12.1699 4.40522C11.2294 4.04049 10.2121 3.91874 9.21204 4.05123C8.21201 4.18371 7.26152 4.56615 6.4484 5.16319C5.63529 5.76024 4.98581 6.55262 4.55998 7.4671C4.13415 8.38159 3.94572 9.38866 4.0121 10.3952C4.07849 11.4018 4.39755 12.3754 4.93979 13.2261C5.48203 14.0767 6.22995 14.7769 7.11443 15.262C7.99891 15.7471 8.9914 16.0014 10.0002 16.0014V17.3337Z" fill="#FF88C9"/>
<path d="M10.0002 17.3337C8.45719 17.3337 6.95352 16.847 5.70318 15.9429C4.45283 15.0387 3.51952 13.7633 3.03608 12.298C2.55264 10.8327 2.5437 9.25224 3.01054 7.78158C3.47738 6.31091 4.39621 5.02497 5.63625 4.10677L6.42905 5.17746C5.41429 5.92885 4.66238 6.98117 4.28036 8.18466C3.89833 9.38814 3.90564 10.6815 4.30125 11.8806C4.69687 13.0796 5.46062 14.1234 6.48382 14.8633C7.50701 15.6031 8.73751 16.0014 10.0002 16.0014V17.3337Z" fill="#E5007A"/>
<path d="M10.0002 17.3337C8.4426 17.3337 6.92547 16.8377 5.66864 15.9177C4.4118 14.9977 3.48054 13.7014 3.00979 12.2167L4.27974 11.814C4.66497 13.029 5.42705 14.0898 6.45555 14.8427C7.48406 15.5956 8.72556 16.0014 10.0002 16.0014V17.3337Z" fill="#E5007A"/>
<path d="M16.769 16.1814C15.6858 17.3677 14.3099 18.2484 12.779 18.7354C11.2482 19.2224 9.61632 19.2986 8.0468 18.9563C6.47727 18.614 5.02526 17.8653 3.83623 16.7851C2.6472 15.7049 1.76291 14.3313 1.27195 12.8017L2.44287 12.4259C2.86796 13.7502 3.63362 14.9396 4.66314 15.8749C5.69265 16.8101 6.94987 17.4584 8.30883 17.7548C9.66779 18.0512 11.0808 17.9852 12.4062 17.5635C13.7317 17.1419 14.923 16.3793 15.8609 15.3522L16.769 16.1814Z" fill="#FF88C9"/>
<path d="M13.445 14.2874C12.6987 14.887 11.8088 15.2815 10.8633 15.4318C9.91777 15.5821 8.9494 15.483 8.05395 15.1442C7.15849 14.8055 6.36696 14.2389 5.75765 13.5004C5.14833 12.762 4.74232 11.8772 4.57978 10.9338C4.41724 9.99027 4.5038 9.02069 4.83089 8.12092C5.15798 7.22114 5.71428 6.42233 6.44477 5.80348C7.17526 5.18463 8.05463 4.76718 8.99593 4.59242C9.93723 4.41765 10.9078 4.49162 11.8118 4.80701L11.359 6.10487C10.6809 5.86831 9.9529 5.81283 9.24686 5.94391C8.54082 6.075 7.88122 6.38812 7.3333 6.8523C6.78538 7.31648 6.36812 7.91565 6.12277 8.59055C5.87743 9.26545 5.81251 9.9927 5.93442 10.7004C6.05634 11.4081 6.36087 12.0717 6.81791 12.6256C7.27494 13.1795 7.86864 13.6045 8.5403 13.8585C9.21196 14.1126 9.93831 14.187 10.6475 14.0743C11.3567 13.9615 12.0242 13.6656 12.584 13.2158L13.445 14.2874Z" fill="#FF88C9"/>
<path d="M8.73622 4.64715C9.75459 4.40673 10.8204 4.4618 11.8086 4.80589L11.3566 6.10403C10.6154 5.84594 9.81591 5.80464 9.05206 5.98497L8.73622 4.64715Z" fill="#E5007A"/>
<path d="M13.445 14.2874C12.5937 14.9714 11.558 15.3866 10.4698 15.4799C9.38167 15.5732 8.29038 15.3404 7.33501 14.8113L8.00105 13.6088C8.71765 14.0057 9.53619 14.1803 10.3524 14.1103C11.1686 14.0403 11.9454 13.7289 12.584 13.2158L13.445 14.2874Z" fill="#E5007A"/>
</svg>
