<svg width="16" height="16" viewBox="0 0 16 16" fill="none" xmlns="http://www.w3.org/2000/svg">
<path d="M13.4891 9.37245C12.7312 9.37245 12.1168 8.75807 12.1168 8.00019C12.1168 7.24231 12.7312 6.62793 13.4891 6.62793C14.2469 6.62793 14.8613 7.24231 14.8613 8.00019C14.8613 8.75807 14.2469 9.37245 13.4891 9.37245Z" fill="#A1A8B3"/>
<path d="M8.00002 9.37245C7.24214 9.37245 6.62776 8.75807 6.62776 8.00019C6.62776 7.24231 7.24214 6.62793 8.00002 6.62793C8.7579 6.62793 9.37228 7.24231 9.37228 8.00019C9.37228 8.75807 8.7579 9.37245 8.00002 9.37245Z" fill="#A1A8B3"/>
<path d="M2.51097 9.37245C1.75309 9.37245 1.13871 8.75807 1.13871 8.00019C1.13871 7.24231 1.75309 6.62793 2.51097 6.62793C3.26885 6.62793 3.88323 7.24231 3.88323 8.00019C3.88323 8.75807 3.26885 9.37245 2.51097 9.37245Z" fill="#A1A8B3"/>
</svg>
